<?xml version="1.0" encoding="UTF-8" standalone="no" ?>
<!DOCTYPE svg PUBLIC "-//W3C//DTD SVG 1.1//EN" "http://www.w3.org/Graphics/SVG/1.1/DTD/svg11.dtd">
<svg xmlns="http://www.w3.org/2000/svg" xmlns:xlink="http://www.w3.org/1999/xlink" version="1.1" width="400" height="400" viewBox="0 0 400 400" xml:space="preserve">
<desc>Created with Fabric.js 3.6.2</desc>
<defs>
</defs>
<g transform="matrix(20.47 0 0 20.47 200 200)"  >
<path style="stroke: none; stroke-width: 1; stroke-dasharray: none; stroke-linecap: butt; stroke-dashoffset: 0; stroke-linejoin: miter; stroke-miterlimit: 4; fill: rgb(0,0,0); fill-rule: nonzero; opacity: 1;"  transform=" translate(-11.89, -12)" d="M 7 5 C 7 3.89543 7.89543 3 9 3 C 10.1046 3 11 3.89543 11 5 C 11 5.74028 10.5978 6.38663 10 6.73244 V 14.0396 H 11.7915 C 12.8961 14.0396 13.7915 13.1441 13.7915 12.0396 V 10.7838 C 13.1823 10.4411 12.7708 9.78837 12.7708 9.03955 C 12.7708 7.93498 13.6662 7.03955 14.7708 7.03955 C 15.8753 7.03955 16.7708 7.93498 16.7708 9.03955 C 16.7708 9.77123 16.3778 10.4111 15.7915 10.7598 V 12.0396 C 15.7915 14.2487 14.0006 16.0396 11.7915 16.0396 H 10 V 17.2676 C 10.5978 17.6134 11 18.2597 11 19 C 11 20.1046 10.1046 21 9 21 C 7.89543 21 7 20.1046 7 19 C 7 18.2597 7.4022 17.6134 8 17.2676 V 6.73244 C 7.4022 6.38663 7 5.74028 7 5 Z" stroke-linecap="round" />
</g>
</svg>